<svg xmlns="http://www.w3.org/2000/svg" viewBox="0 0 18 18"><g clip-path="url(#clip0)"><path d="M18 5.3C17.9 4.3 17.8 3.7 17.6 3.1 17.3 2.5 17 2 16.5 1.5 16.1 1.1 15.5 0.7 14.9 0.5 14.4 0.3 13.7 0.1 12.7 0.1 11.8 0 11.5 0 9 0 6.6 0 6.3 0 5.3 0.1 4.4 0.1 3.7 0.2 3.1 0.5 2.5 0.7 2 1.1 1.5 1.5 1.1 2 0.7 2.5 0.5 3.1 0.3 3.7 0.1 4.3 0.1 5.3 0 6.3 0 6.6 0 9 0 11.4 0 11.8 0.1 12.7 0.1 13.7 0.3 14.3 0.5 14.9 0.7 15.5 1.1 16 1.5 16.5 2 16.9 2.5 17.3 3.1 17.5 3.7 17.8 4.4 17.9 5.3 17.9 6.3 18 6.6 18 9 18 11.5 18 11.8 18 12.7 17.9 13.7 17.9 14.4 17.8 14.9 17.5 16.1 17.1 17.1 16.1 17.6 14.9 17.8 14.3 17.9 13.7 18 12.7 18 11.8 18 11.4 18 9 18 6.6 18 6.3 18 5.3ZM16.4 12.6C16.3 13.5 16.2 14 16.1 14.3 15.7 15.1 15.1 15.7 14.3 16 14 16.1 13.5 16.3 12.7 16.3 11.7 16.4 11.4 16.4 9 16.4 6.6 16.4 6.3 16.4 5.4 16.3 4.5 16.3 4 16.1 3.7 16 3.3 15.9 3 15.6 2.7 15.3 2.4 15.1 2.2 14.7 2 14.3 1.9 14 1.8 13.5 1.7 12.6 1.7 11.7 1.7 11.4 1.7 9 1.7 6.6 1.7 6.3 1.7 5.4 1.8 4.5 1.9 4 2 3.7 2.2 3.3 2.4 3 2.7 2.7 3 2.4 3.3 2.1 3.7 2 4.1 1.9 4.5 1.7 5.4 1.7 6.4 1.6 6.6 1.6 9 1.6 11.4 1.6 11.7 1.6 12.7 1.7 13.6 1.7 14 1.9 14.3 2 14.7 2.1 15.1 2.4 15.4 2.7 15.7 3 15.9 3.3 16.1 3.7 16.2 4 16.3 4.5 16.4 5.4 16.4 6.3 16.4 6.6 16.4 9 16.4 11.4 16.4 11.7 16.4 12.6Z" /><path d="M9 4.4C6.5 4.4 4.4 6.4 4.4 9 4.4 11.6 6.5 13.6 9 13.6 11.6 13.6 13.7 11.6 13.7 9 13.7 6.4 11.6 4.4 9 4.4ZM9 12C7.4 12 6 10.7 6 9 6 7.3 7.4 6 9 6 10.7 6 12 7.3 12 9 12 10.7 10.7 12 9 12Z" /><path d="M14.9 4.2C14.9 4.8 14.4 5.3 13.8 5.3 13.2 5.3 12.8 4.8 12.8 4.2 12.8 3.6 13.2 3.1 13.8 3.1 14.4 3.1 14.9 3.6 14.9 4.2Z" /></g><defs><clipPath><rect/></clipPath></defs></svg>