<?xml version="1.0" encoding="UTF-8"?>
<svg id="Layer_1" data-name="Layer 1" xmlns="http://www.w3.org/2000/svg" viewBox="0 0 1080 1080">
  <defs>
    <style>
      .cls-1 {
        fill: #19bd33;
      }
    </style>
  </defs>
  <polygon class="cls-1" points="680.12 596.12 665.62 561.11 658.93 544.89 648.12 518.88 619.1 448.82 601.63 406.64 601.61 406.64 478.37 406.64 460.9 448.83 431.88 518.89 414.38 561.11 385.39 631.14 367.89 673.36 530.46 673.36 607.7 596.13 548.01 596.13 512.99 631.14 431.06 631.14 460.08 561.11 550.2 561.11 521.45 518.89 477.59 518.89 506.61 448.83 573.43 448.83 609.15 534.98 626.62 577.2 634.45 596.12 648.94 631.13 599.43 631.13 628.16 673.36 666.45 673.36 690.13 673.36 712.11 673.36 680.12 596.12"/>
</svg>
