<svg
	xmlns="http://www.w3.org/2000/svg" viewBox="0 0 1037.16 315.01">
	<title>Asset 2</title>
	<g id="Layer_2">
		<g id="Layer_1-2">
			<defs>
				<g id="mask">
					<mask id="mask-abdallah-first-a">
						<path class="mask" id="mask-first-a" d="M16.5,275.51s4,2,17-9S126,180,126,178,263.15,45.89,269,41c0,0,41-35,42-35s18-15,6,13-78.59,159-115,261l-2.38,4.66S250,166,249,166s-125,6-144,10c0,0-69,7-84,12s-19,4-19,6,12,2,17-5c0,0,224-31,335-25,0,0,10-.55,10,2" style="fill: none;stroke: #000;stroke-linecap: round;stroke-linejoin: round;stroke-width: 4px"/>
					</mask>
					<mask id="mask-abdallah-first-b">
						<path class="mask" id="mask-first-b" d="M364,177s66-48,106-112c0,0,24-41-15-12s-90.52,104.16-95.76,141.08S393,216,407,200c0,0,10.11-12.21,11-14,0,0,8-11-2-13s-16,8-16,13,2.85,15,13,14,23-2,54-20" style="fill: none;stroke: #000;stroke-linecap: round;stroke-linejoin: round;stroke-width: 4px"/>
					</mask>
					<mask id="mask-abdallah-d">
						<path class="mask" id="mask-d" d="M511,172s-5-13-22-5-35,23-36,33,2,18,37-10S583,95,592,82l2-3s14-20-5-9c-2,1-37.59,37.59-52,70-12,27-46,99-59.69,159.29L474,313" style="fill: none;stroke: #000;stroke-linecap: round;stroke-linejoin: round;stroke-width: 4px"/>
					</mask>
					<mask id="mask-abdallah-second-a">
						<path class="mask" id="mask-second-a" d="M575.8,186.22S597,172,584,169s-30.81,12.24-30.81,12.24S540,191,537,197s-8,20,16,5,29-18,29-18-6,9-4,17,16,4,21,2,58-24,58-24" style="fill: none;stroke: #000;stroke-linecap: round;stroke-linejoin: round;stroke-width: 4px"/>
					</mask>
					<mask id="mask-abdallah-first-l">
						<path class="mask" id="mask-first-l" d="M660,174l53-53s75-76,70-93c0,0-1-6-11-2S709,70,664,165c-44.52,94,5,70,69,13" style="fill: none;stroke: #000;stroke-linecap: round;stroke-linejoin: round;stroke-width: 4px"/>
					</mask>
					<mask id="mask-abdallah-second-l">
						<path class="mask" id="mask-second-l" d="M735,174l53-53s75-76,70-93c0,0-1-6-11-2S790,63,739,165c-42.42,84.84-7.36,80.28,64,17" style="fill: none;stroke: #000;stroke-linecap: round;stroke-linejoin: round;stroke-width: 4px"/>
					</mask>
					<mask id="mask-abdallah-third-a">
						<path class="mask" id="mask-third-a" d="M826.8,186.22S848,172,835,169s-30.81,12.24-30.81,12.24S791,191,788,197s-8,20,16,5,29-18,29-18-6,9-4,17,16,4,21,2,58-24,58-24" style="fill: none;stroke: #000;stroke-linecap: round;stroke-linejoin: round;stroke-width: 4px"/>
					</mask>
					<mask id="mask-abdallah-h">
						<path class="mask" id="mask-h" d="M913,171s38.69-32.46,52-43c24-19,66-68,70-87,.58-2.73-.09-10.14-7-6-10,6-59,44-119,141l-33,57s-17,29,10-7,42.39-44.63,47-17c4,24,30,12,49-3l37-26" style="fill: none;stroke: #000;stroke-linecap: round;stroke-linejoin: round;stroke-width: 4px"/>
					</mask>
				</g>
			</defs>
			<g id="signature">
				<path mask="url(#mask-abdallah-first-a)" id="abdallah-first-a" d="M199.15,282.23a107.7,107.7,0,0,1,4.08-11.74c12.25-30.11,25-60.74,37.77-91.37l3.58-10.2c-3.07,0-5.11-.51-7.66-.51l-58.7,3.06c-12.76.51-25,2-37.77,2.55-6.64.51-10.72,3.06-14.81,7.15C111.86,195,98.08,208.73,83.79,222,69,236.8,53.16,251.1,37.85,265.39c-4.08,3.06-7.66,6.63-12.25,9.7-1.53,1-4.09,1.53-6.64,2-2,0-3.57-1.53-3.06-4.08,7.15-.52,7.15,0,12.25-4.6,12.76-11.23,25.52-22.46,37.77-34.2,17.87-16.84,35.22-34.2,52.58-51.55a57.52,57.52,0,0,1,5.61-5.62c-7.14-1-11.74,0-16.84.51-9.7,1-19.91,2-29.61,3.58-16.33,2-32.67,5.1-49,7.65a16.62,16.62,0,0,0-9.19,4.09c-4.59,3.57-10.72,4.59-16.84,5.1-1,0-2.55-1-2.55-1.53,0-1,0-3.06,1-3.57a70.47,70.47,0,0,1,9.19-4.09,181.51,181.51,0,0,1,24-5.1c21.43-3.57,42.87-6.13,64.31-9.19,7.66-1,15.31-1.53,22.46-2a22.67,22.67,0,0,0,15.31-7.15c27.57-27.05,55.13-54.1,83.2-81.16,21.95-22,44.92-42.36,68.4-62.78L308.89,5.07a55.76,55.76,0,0,1,8.17-3.58c2-.51,4.59,1,4.59,3.07a55.43,55.43,0,0,1-.51,9.18c-2,5.62-4.08,11.23-6.63,16.85-4.09,8.16-8.17,16.33-12.77,24.5-16.84,32.67-32.15,65.33-45.93,99l-3.07,7.66a4,4,0,0,0,.51,1.53c3.07,1,6.13.51,9.19.51l79.63-1.53a129.13,129.13,0,0,1,14.29.51c3.57,0,6.64.51,9.7,2.55-1.53,3.07-3.57,1-5.62,1.53-2,0-4.59-.51-7.14-.51a24.91,24.91,0,0,0-6.13-.51H308.38c-2,0-4.08.51-6.13.51H282.86a31.45,31.45,0,0,1-7.15.51h-6.12a24.87,24.87,0,0,0-6.13.51,29.08,29.08,0,0,0-6.63.51,30.82,30.82,0,0,0-6.64.52c-4.59,9.18-8.17,19.39-12.25,29.09l-12.25,30.12c-4.08,9.69-8.17,19.39-12.76,29.09-4.09,9.7-7.15,19.4-11.74,28.59C198.64,284.78,198.64,283.25,199.15,282.23Zm48-118.42c1.53-4.08,3.57-7.66,5.1-11.74,14.29-33.69,29.61-66.87,46.45-99.53,6.13-10.72,11.23-22.46,16.34-33.69,1.53-4.09,4.08-8.17,2.55-14.29a49.59,49.59,0,0,0-6.13,3.57A214.07,214.07,0,0,0,294.6,21.4c-54.11,45.43-103.11,95.45-153.64,145-1,.51-1.53,2-2.56,3.58Z" />
				<path mask="url(#mask-abdallah-first-b)" id="first-b" d="M358.4,208.22a41.43,41.43,0,0,1,1-20.93c2.56-8.17,5.11-15.82,8.17-23.48C386,122.47,413,87.25,446.2,57.13c5.1-4.59,10.72-8.17,16.33-12.25a28.75,28.75,0,0,1,9.19-3.57,5.59,5.59,0,0,1,7.15,6.12c0,2.55-.51,5.62-2.05,7.66A190.78,190.78,0,0,1,466.11,75c-9.19,14.29-19.91,27.05-31.65,39.81A645.32,645.32,0,0,1,373.72,172c-11.74,9.7-13.27,22-11.74,35.22,1,7.65,5.1,10.21,13.27,8.68h1c10.21-2.56,18.88-8.17,27.05-15.32a59.42,59.42,0,0,1-4.08-6.63c-5.11-10.21,3.57-20.93,12.76-22.46h4.08c5.11,1,8.17,5.61,6.13,10.72a54.76,54.76,0,0,1-4.09,7.65,38.25,38.25,0,0,1-5.61,7.15c1,2.55,3.06,2,4.59,1.53A137.08,137.08,0,0,0,430.89,195c12.25-4.6,24.5-9.19,35.73-16.34a6.47,6.47,0,0,1,3.06-.51c.51,0,.51.51,1,1a15.41,15.41,0,0,1-4.08,4.09,188.42,188.42,0,0,1-44.41,17.86,38.29,38.29,0,0,1-10.72,1c-3.06,0-5.11,1-7.66,2.56-5.1,3.57-10.72,7.14-16.33,10.72-4.08,2.55-9.19,3.57-14.29,4.08C365.55,220,359.93,215.88,358.4,208.22Zm17.36-42.88c21.95-18.88,43.39-38.79,62.78-61.25A414.64,414.64,0,0,0,464.06,70.4c4.09-5.1,6.64-11.23,9.19-16.84a73.69,73.69,0,0,0,2.55-9.19c-3.06.51-4.59.51-5.61,1-2.55,1-5.11,2-7.15,4.08-7.65,5.62-15.31,11.23-22,17.87a295.53,295.53,0,0,0-44.4,53.08,266.84,266.84,0,0,0-23.48,40.33c-1,2-1.54,4.59-3.07,8.68A40.63,40.63,0,0,0,375.76,165.34Zm36.24,26a81.17,81.17,0,0,0,6.63-11.22c1.54-3.07-1.53-6.13-4.59-5.62-5.61.51-9.7,4.08-11.74,9.7-1.53,4.59-1,9.19,4.08,12.76C408.43,195,410.47,193.42,412,191.37Z" />
				<path mask="url(#mask-abdallah-d)" id="d" d="M600.86,70.4a38.68,38.68,0,0,1-4.59,9.19c-4.09,5.61-8.17,11.74-12.77,16.84-14.29,16.34-28.58,32.67-43.38,49a68.79,68.79,0,0,0-11.74,17.35c-14.81,31.14-26.55,63.29-36.75,96-4.6,16.34-9.7,32.67-14.3,49a31,31,0,0,1-2.55,6.13c-2.55,0-2.55-1.53-2-3.06a26.39,26.39,0,0,1,1-5.62c9.19-31.13,18.38-62.27,29.61-92.39,4.59-13.27,10.71-26.54,15.82-39.81a14.83,14.83,0,0,0,1.53-7.15,20,20,0,0,1-5.1,4.09c-10.21,9.18-20.42,17.86-30.63,26.54-5.61,4.08-12.25,7.66-18.38,11.23a22.1,22.1,0,0,1-9.69,2,5.22,5.22,0,0,1-6.13-6.12,30.75,30.75,0,0,1,3.06-9.7,67.63,67.63,0,0,1,40.84-30.12c6.12-2,12.25-2,16.33,5.62l16.85-16.85c2.55-3.06,4.08-6.12,6.12-9.7,10.21-19.39,21.44-37.77,35.22-54.61a199.09,199.09,0,0,1,17.36-18.38,21.66,21.66,0,0,1,8.67-5.1,4.38,4.38,0,0,1,5.62,5.61ZM508.47,171.47c-2-4.09-4.08-5.62-7.66-5.11s-6.63,1-9.7,2.56a65.13,65.13,0,0,0-30.62,22.45c-2,3.07-4.08,6.13-5.11,9.19-1,1.53-.51,3.58-.51,5.62,7.66-.51,7.66,0,13.79-3.58C483.46,194.44,495.71,183.21,508.47,171.47Zm88.31-102.6c-4.6,0-6.13,2.55-8.17,4.59-18.38,16.85-34.2,37.27-44.92,59.72,0,0-2.55,5.11,5.1-2.55l36.76-42.36c3.57-4.6,6.63-9.7,9.69-14.3Z" />
				<path mask="url(#mask-abdallah-second-a)" id="second-a" d="M532,203.63a31,31,0,0,1,3.57-7.15,82.64,82.64,0,0,1,35.73-27.56,43.05,43.05,0,0,1,11.23-2c5.61,0,8.68,6.13,6.12,11.23L581,192.4c-1.53,3.57-3.06,7.14,0,10.71,4.59,4.6,24-3.06,47.47-13.78,7.14-3.57,13.78-6.12,21.44-9.18,5.1-2.05,13.78-3.07,5.1.51-13.27,6.12-27.05,12.76-40.83,18.37-13.27,5.62-23.48,9.7-32.16,8.17a8.1,8.1,0,0,1-6.13-9.19c0-2.55,1-5.1,1.54-8.17-2.56-1-4.09,1-5.11,2-8.17,5.61-16.33,11.22-25.52,14.8-3.06,1-6.64,2.55-9.7,3.06C533.48,210.26,530.93,207.2,532,203.63Zm54.1-31.14c-1.53-3.06-4.59-2.55-7.14-2a77.76,77.76,0,0,0-42.37,31.64c-.51,1,0,2,0,4.09C554.92,200.56,579.42,183.72,586.05,172.49Z" />
				<path mask="url(#mask-abdallah-first-l)" id="first-l" d="M646.79,223.53a44.86,44.86,0,0,1-.51-14.29c1-8.17,10.21-33.18,15.83-44.92A481.73,481.73,0,0,1,719.28,73c9.7-12.25,19.39-24,31.13-33.68A180.78,180.78,0,0,1,767.77,27,24,24,0,0,1,775.43,24c6.12-1.53,10.2,2,9.18,8.17a37.49,37.49,0,0,1-3.57,9.7,144.9,144.9,0,0,1-17.35,26c-9.7,11.23-19.4,22-29.1,32.67-22,24.5-44.41,48-68.4,70.44-3.06,2.55-5.61,5.61-6.63,9.7-6.13,18.37-11.23,23.48-9.19,42.36.51,4.09,3.57,6.13,7.65,5.11a34.6,34.6,0,0,0,10.21-3.58c8.17-3.57,15.32-8.67,22.46-14.29,10.21-8.68,20.93-17.35,31.65-26l6.12-4.59c4.09-2,8.17-3.07,3.07,2L691.2,214.35a96,96,0,0,1-21.44,13.78c-3.57,1-7.14,2.55-10.71,3.06C652.92,232.72,648.33,229.66,646.79,223.53Zm30.63-68.91C704.47,128.08,730,100.52,755,71.93c4.59-5.61,9.7-11.74,13.78-17.35,3.57-5.62,6.64-11.23,9.7-16.85,1.53-3.06,3.57-6.12,1.53-10.21-4.08-1-7.15.52-10.21,2.56-5.1,3.57-10.72,7.14-15.31,11.23-7.66,7.14-15.32,14.29-22,21.95-24.5,27.56-44.41,59.21-61.25,91.87-1,2.05-2.56,3.58-1.54,6.13A85.77,85.77,0,0,0,677.42,154.62Z" />
				<path mask="url(#mask-abdallah-second-l)" id="second-l" d="M721.82,223.53a44.86,44.86,0,0,1-.51-14.29c1-8.17,10.21-33.18,15.83-44.92A481.73,481.73,0,0,1,794.31,73C804,60.7,813.7,49,825.44,39.27A180.78,180.78,0,0,1,842.8,27,24,24,0,0,1,850.45,24c6.13-1.53,10.21,2,9.19,8.17a37.49,37.49,0,0,1-3.57,9.7,145,145,0,0,1-17.36,26c-9.69,11.23-19.39,22-29.09,32.67-22,24.5-44.41,48-68.4,70.44-3.06,2.55-5.61,5.61-6.64,9.7C728.46,199,723.35,204.14,725.4,223c.51,4.09,3.57,6.13,7.65,5.11a34.6,34.6,0,0,0,10.21-3.58c8.17-3.57,15.32-8.67,22.46-14.29,10.21-8.68,20.93-17.35,31.65-26l6.12-4.59c4.09-2,8.17-3.07,3.07,2l-40.33,32.67a96,96,0,0,1-21.44,13.78c-3.57,1-7.14,2.55-10.72,3.06C728,232.72,723.35,229.66,721.82,223.53Zm30.63-68.91c27-26.54,52.57-54.1,77.59-82.69,4.59-5.61,9.69-11.74,13.78-17.35,3.57-5.62,6.63-11.23,9.7-16.85,1.53-3.06,3.57-6.12,1.53-10.21-4.09-1-7.15.52-10.21,2.56-5.11,3.57-10.72,7.14-15.31,11.23-7.66,7.14-15.32,14.29-21.95,21.95-24.5,27.56-44.41,59.21-61.26,91.87-1,2.05-2.55,3.58-1.53,6.13A85.77,85.77,0,0,0,752.45,154.62Z" />
				<path mask="url(#mask-abdallah-third-a)" id="third-a" d="M783.07,203.63a31,31,0,0,1,3.57-7.15,82.61,82.61,0,0,1,35.74-27.56,43,43,0,0,1,11.22-2c5.62,0,8.68,6.13,6.13,11.23l-7.66,14.3c-1.53,3.57-3.06,7.14,0,10.71,4.6,4.6,24-3.06,47.47-13.78,7.15-3.57,13.79-6.12,21.44-9.18,5.11-2.05,13.78-3.07,5.11.51C892.82,186.78,879,193.42,865.25,199c-13.27,5.62-23.48,9.7-32.16,8.17-4.08-1-6.63-4.6-6.12-9.19,0-2.55,1-5.1,1.53-8.17-2.55-1-4.08,1-5.1,2-8.17,5.61-16.34,11.22-25.53,14.8-3.06,1-6.63,2.55-9.69,3.06C784.6,210.26,782.05,207.2,783.07,203.63Zm54.11-31.14c-1.53-3.06-4.6-2.55-7.15-2a77.73,77.73,0,0,0-42.36,31.64c-.52,1,0,2,0,4.09C806,200.56,830.54,183.72,837.18,172.49Z" />
				<path mask="url(#mask-abdallah-h)" id="h" d="M868.82,244c.51-2.55,2-5.1,3.07-7.66,10.72-17.86,21.44-36.24,32.15-54.61,8.68-15.32,18.38-29.61,28.08-44.41,15.82-24.5,34.2-47,54.1-67.89a192.82,192.82,0,0,1,30.12-27.56,81.34,81.34,0,0,1,11.23-6.64c5.62-2,10.21,2,8.17,7.66a96.49,96.49,0,0,1-5.62,12.76c-13.27,23-30.11,42.88-49,61.25a697,697,0,0,1-59.72,49.51c-4.59,3.58-8.68,7.66-11.23,12.76-6.64,11.23-13.27,22.46-20.42,33.18a44.17,44.17,0,0,1-3.06,5.11V220a.5.5,0,0,0,.51-.51l2.55-2.55c2.55-2.05,4.09-4.09,6.64-6.64,5.61-4.59,10.72-9.7,16.84-14.8,5.62-4.09,15.83-7.66,19.4,2a43.13,43.13,0,0,1,2,8.68,88.6,88.6,0,0,0,3.57,10.72c2,4.08,5.62,6.12,10.21,5.1a29.5,29.5,0,0,0,10.72-3.57,75.08,75.08,0,0,0,12.25-7.15c13.78-9.19,27.06-18.88,40.84-28.58a76.77,76.77,0,0,1,6.63-4.6,2.19,2.19,0,0,1,.51,3.58l-4.08,3.06C1001,195,986.74,205.16,971.93,215.37a99.26,99.26,0,0,1-10.72,6.12l-7.14,3.06c-11.74,2.56-17.87-1-21.44-12.25-1-3.57-1.53-7.65-3.06-11.74-1.53-7.14-4.09-8.16-10.72-4.08A75.59,75.59,0,0,0,903,209.24c-8.67,9.19-16.33,18.89-24.5,28.58-2,3.07-4.08,5.62-6.12,8.17-.51.51-2,.51-3.07.51C868.82,246,868.31,244.46,868.82,244Zm60.75-88.31c17.86-13.78,34.71-28.58,51-43.89a251.58,251.58,0,0,0,29.1-32.67c6.63-9.19,12.25-18.89,18.37-28.08,2-3.57,4.08-7.14,4.08-12.25-5.61-.51-9.18,2.56-12.25,5.11a278.73,278.73,0,0,0-23,19.91c-27.56,27.56-51,58.19-71.46,91.36-1,1-2,2.05-.51,4.09A28.73,28.73,0,0,1,929.57,155.64Z" />
			</g>
		</g>
	</g>
</svg>
