<svg width="238" height="882" viewBox="0 0 238 882" fill="none" xmlns="http://www.w3.org/2000/svg">
<circle cx="228.698" cy="8.57718" r="8.57718" fill="#930000"/>
<circle cx="228.698" cy="35.5772" r="8.57718" fill="#930000"/>
<circle cx="228.698" cy="62.5772" r="8.57718" fill="#930000"/>
<circle cx="228.698" cy="89.5772" r="8.57718" fill="#930000"/>
<circle cx="228.698" cy="116.577" r="8.57718" fill="#930000"/>
<circle cx="228.698" cy="143.577" r="8.57718" fill="#930000"/>
<circle cx="228.698" cy="170.577" r="8.57718" fill="#930000"/>
<circle cx="228.698" cy="197.577" r="8.57718" fill="#930000"/>
<circle cx="228.698" cy="224.577" r="8.57718" fill="#930000"/>
<circle cx="228.698" cy="251.577" r="8.57718" fill="#930000"/>
<circle cx="228.698" cy="305.577" r="8.57718" fill="#930000"/>
<circle cx="228.698" cy="278.577" r="8.57718" fill="#930000"/>
<circle cx="228.698" cy="332.577" r="8.57718" fill="#930000"/>
<circle cx="228.698" cy="359.577" r="8.57718" fill="#930000"/>
<circle cx="228.698" cy="386.577" r="8.57718" fill="#930000"/>
<circle cx="228.698" cy="413.577" r="8.57718" fill="#930000"/>
<circle cx="228.698" cy="440.577" r="8.57718" fill="#930000"/>
<circle cx="228.698" cy="467.577" r="8.57718" fill="#930000"/>
<circle cx="228.698" cy="494.577" r="8.57718" fill="#930000"/>
<circle cx="228.698" cy="521.577" r="8.57718" fill="#930000"/>
<circle cx="228.698" cy="548.577" r="8.57718" fill="#930000"/>
<circle cx="228.698" cy="575.577" r="8.57718" fill="#930000"/>
<circle cx="228.698" cy="602.577" r="8.57718" fill="#930000"/>
<circle cx="228.698" cy="629.577" r="8.57718" fill="#930000"/>
<circle cx="228.698" cy="656.577" r="8.57718" fill="#930000"/>
<circle cx="228.698" cy="683.577" r="8.57718" fill="#930000"/>
<circle cx="228.698" cy="737.577" r="8.57718" fill="#930000"/>
<circle cx="228.698" cy="710.577" r="8.57718" fill="#930000"/>
<circle cx="228.698" cy="764.577" r="8.57718" fill="#930000"/>
<circle cx="228.698" cy="791.577" r="8.57718" fill="#930000"/>
<circle cx="228.698" cy="818.577" r="8.57718" fill="#930000"/>
<circle cx="228.698" cy="845.577" r="8.57718" fill="#930000"/>
<circle cx="228.577" cy="872.577" r="8.57718" fill="#930000"/>
<circle cx="140.577" cy="22.5772" r="8.57718" fill="#930000"/>
<circle cx="140.577" cy="49.1476" r="8.57718" fill="#930000"/>
<circle cx="140.577" cy="76.1476" r="8.57718" fill="#930000"/>
<circle cx="140.577" cy="103.148" r="8.57718" fill="#930000"/>
<circle cx="140.577" cy="130.148" r="8.57718" fill="#930000"/>
<circle cx="140.577" cy="157.148" r="8.57718" fill="#930000"/>
<circle cx="140.577" cy="184.148" r="8.57718" fill="#930000"/>
<circle cx="140.577" cy="211.148" r="8.57718" fill="#930000"/>
<circle cx="140.577" cy="238.148" r="8.57718" fill="#930000"/>
<circle cx="140.577" cy="265.148" r="8.57718" fill="#930000"/>
<circle cx="140.577" cy="319.148" r="8.57718" fill="#930000"/>
<circle cx="140.577" cy="292.148" r="8.57718" fill="#930000"/>
<circle cx="140.577" cy="346.148" r="8.57718" fill="#930000"/>
<circle cx="140.577" cy="373.148" r="8.57718" fill="#930000"/>
<circle cx="140.577" cy="400.148" r="8.57718" fill="#930000"/>
<circle cx="140.577" cy="427.148" r="8.57718" fill="#930000"/>
<circle cx="140.577" cy="454.148" r="8.57718" fill="#930000"/>
<circle cx="140.577" cy="481.148" r="8.57718" fill="#930000"/>
<circle cx="140.577" cy="508.148" r="8.57718" fill="#930000"/>
<circle cx="140.577" cy="535.148" r="8.57718" fill="#930000"/>
<circle cx="140.577" cy="562.148" r="8.57718" fill="#930000"/>
<circle cx="140.577" cy="589.148" r="8.57718" fill="#930000"/>
<circle cx="140.577" cy="616.148" r="8.57718" fill="#930000"/>
<circle cx="140.577" cy="643.148" r="8.57718" fill="#930000"/>
<circle cx="140.577" cy="670.148" r="8.57718" fill="#930000"/>
<circle cx="140.577" cy="697.148" r="8.57718" fill="#930000"/>
<circle cx="140.577" cy="751.148" r="8.57718" fill="#930000"/>
<circle cx="140.577" cy="724.148" r="8.57718" fill="#930000"/>
<circle cx="140.577" cy="778.148" r="8.57718" fill="#930000"/>
<circle cx="140.577" cy="805.148" r="8.57718" fill="#930000"/>
<circle cx="140.577" cy="832.148" r="8.57718" fill="#930000"/>
<circle cx="140.577" cy="859.148" r="8.57718" fill="#930000"/>
<circle cx="96.5772" cy="65.5772" r="8.57718" fill="#930000"/>
<circle cx="96.5772" cy="95.5973" r="8.57718" fill="#930000"/>
<circle cx="96.5772" cy="125.597" r="8.57718" fill="#930000"/>
<circle cx="96.5772" cy="155.597" r="8.57718" fill="#930000"/>
<circle cx="96.5772" cy="185.597" r="8.57718" fill="#930000"/>
<circle cx="96.5772" cy="215.597" r="8.57718" fill="#930000"/>
<circle cx="96.5772" cy="245.597" r="8.57718" fill="#930000"/>
<circle cx="96.5772" cy="275.597" r="8.57718" fill="#930000"/>
<circle cx="96.5772" cy="305.597" r="8.57718" fill="#930000"/>
<circle cx="96.5772" cy="335.597" r="8.57718" fill="#930000"/>
<circle cx="96.5772" cy="395.597" r="8.57718" fill="#930000"/>
<circle cx="96.5772" cy="365.597" r="8.57718" fill="#930000"/>
<circle cx="96.5772" cy="425.597" r="8.57718" fill="#930000"/>
<circle cx="96.5772" cy="455.597" r="8.57718" fill="#930000"/>
<circle cx="96.5772" cy="485.597" r="8.57718" fill="#930000"/>
<circle cx="96.5772" cy="515.597" r="8.57718" fill="#930000"/>
<circle cx="96.5772" cy="545.597" r="8.57718" fill="#930000"/>
<circle cx="96.5772" cy="575.597" r="8.57718" fill="#930000"/>
<circle cx="96.5772" cy="605.597" r="8.57718" fill="#930000"/>
<circle cx="96.5772" cy="635.597" r="8.57718" fill="#930000"/>
<circle cx="96.5772" cy="665.597" r="8.57718" fill="#930000"/>
<circle cx="96.5772" cy="695.597" r="8.57718" fill="#930000"/>
<circle cx="96.5772" cy="725.597" r="8.57718" fill="#930000"/>
<circle cx="96.5772" cy="785.597" r="8.57718" fill="#930000"/>
<circle cx="96.5772" cy="755.597" r="8.57718" fill="#930000"/>
<circle cx="96.5772" cy="815.597" r="8.57718" fill="#930000"/>
<circle cx="8.57718" cy="65.5772" r="8.57718" fill="#930000"/>
<circle cx="8.57718" cy="95.5973" r="8.57718" fill="#930000"/>
<circle cx="8.57718" cy="125.597" r="8.57718" fill="#930000"/>
<circle cx="8.57718" cy="155.597" r="8.57718" fill="#930000"/>
<circle cx="8.57718" cy="185.597" r="8.57718" fill="#930000"/>
<circle cx="8.57718" cy="215.597" r="8.57718" fill="#930000"/>
<circle cx="8.57718" cy="245.597" r="8.57718" fill="#930000"/>
<circle cx="8.57718" cy="275.597" r="8.57718" fill="#930000"/>
<circle cx="8.57718" cy="305.597" r="8.57718" fill="#930000"/>
<circle cx="8.57718" cy="335.597" r="8.57718" fill="#930000"/>
<circle cx="8.57718" cy="395.597" r="8.57718" fill="#930000"/>
<circle cx="8.57718" cy="365.597" r="8.57718" fill="#930000"/>
<circle cx="8.57718" cy="425.597" r="8.57718" fill="#930000"/>
<circle cx="8.57718" cy="455.597" r="8.57718" fill="#930000"/>
<circle cx="8.57718" cy="485.597" r="8.57718" fill="#930000"/>
<circle cx="8.57718" cy="515.597" r="8.57718" fill="#930000"/>
<circle cx="8.57718" cy="545.597" r="8.57718" fill="#930000"/>
<circle cx="8.57718" cy="575.597" r="8.57718" fill="#930000"/>
<circle cx="8.57718" cy="605.597" r="8.57718" fill="#930000"/>
<circle cx="8.57718" cy="635.597" r="8.57718" fill="#930000"/>
<circle cx="8.57718" cy="665.597" r="8.57718" fill="#930000"/>
<circle cx="8.57718" cy="695.597" r="8.57718" fill="#930000"/>
<circle cx="8.57718" cy="725.597" r="8.57718" fill="#930000"/>
<circle cx="8.57718" cy="785.597" r="8.57718" fill="#930000"/>
<circle cx="8.57718" cy="755.597" r="8.57718" fill="#930000"/>
<circle cx="8.57718" cy="815.597" r="8.57718" fill="#930000"/>
<circle cx="184.577" cy="34.5772" r="8.57718" fill="#930000"/>
<circle cx="184.577" cy="62.7584" r="8.57718" fill="#930000"/>
<circle cx="184.577" cy="90.7584" r="8.57718" fill="#930000"/>
<circle cx="184.577" cy="118.758" r="8.57718" fill="#930000"/>
<circle cx="184.577" cy="146.758" r="8.57718" fill="#930000"/>
<circle cx="184.577" cy="174.758" r="8.57718" fill="#930000"/>
<circle cx="184.577" cy="202.758" r="8.57718" fill="#930000"/>
<circle cx="184.577" cy="230.758" r="8.57718" fill="#930000"/>
<circle cx="184.577" cy="258.758" r="8.57718" fill="#930000"/>
<circle cx="184.577" cy="286.758" r="8.57718" fill="#930000"/>
<circle cx="184.577" cy="342.758" r="8.57718" fill="#930000"/>
<circle cx="184.577" cy="314.758" r="8.57718" fill="#930000"/>
<circle cx="184.577" cy="370.758" r="8.57718" fill="#930000"/>
<circle cx="184.577" cy="398.758" r="8.57718" fill="#930000"/>
<circle cx="184.577" cy="426.758" r="8.57718" fill="#930000"/>
<circle cx="184.577" cy="454.758" r="8.57718" fill="#930000"/>
<circle cx="184.577" cy="482.758" r="8.57718" fill="#930000"/>
<circle cx="184.577" cy="510.758" r="8.57718" fill="#930000"/>
<circle cx="184.577" cy="538.758" r="8.57718" fill="#930000"/>
<circle cx="184.577" cy="566.758" r="8.57718" fill="#930000"/>
<circle cx="184.577" cy="594.758" r="8.57718" fill="#930000"/>
<circle cx="184.577" cy="622.758" r="8.57718" fill="#930000"/>
<circle cx="184.577" cy="650.758" r="8.57718" fill="#930000"/>
<circle cx="184.577" cy="678.758" r="8.57718" fill="#930000"/>
<circle cx="184.577" cy="706.758" r="8.57718" fill="#930000"/>
<circle cx="184.577" cy="762.758" r="8.57718" fill="#930000"/>
<circle cx="184.577" cy="734.758" r="8.57718" fill="#930000"/>
<circle cx="184.577" cy="790.758" r="8.57718" fill="#930000"/>
<circle cx="184.577" cy="818.758" r="8.57718" fill="#930000"/>
<circle cx="184.577" cy="846.758" r="8.57718" fill="#930000"/>
<circle cx="52.5772" cy="34.5772" r="8.57718" fill="#930000"/>
<circle cx="52.5772" cy="62.7584" r="8.57718" fill="#930000"/>
<circle cx="52.5772" cy="90.7584" r="8.57718" fill="#930000"/>
<circle cx="52.5772" cy="118.758" r="8.57718" fill="#930000"/>
<circle cx="52.5772" cy="146.758" r="8.57718" fill="#930000"/>
<circle cx="52.5772" cy="174.758" r="8.57718" fill="#930000"/>
<circle cx="52.5772" cy="202.758" r="8.57718" fill="#930000"/>
<circle cx="52.5772" cy="230.758" r="8.57718" fill="#930000"/>
<circle cx="52.5772" cy="258.758" r="8.57718" fill="#930000"/>
<circle cx="52.5772" cy="286.758" r="8.57718" fill="#930000"/>
<circle cx="52.5772" cy="342.758" r="8.57718" fill="#930000"/>
<circle cx="52.5772" cy="314.758" r="8.57718" fill="#930000"/>
<circle cx="52.5772" cy="370.758" r="8.57718" fill="#930000"/>
<circle cx="52.5772" cy="398.758" r="8.57718" fill="#930000"/>
<circle cx="52.5772" cy="426.758" r="8.57718" fill="#930000"/>
<circle cx="52.5772" cy="454.758" r="8.57718" fill="#930000"/>
<circle cx="52.5772" cy="482.758" r="8.57718" fill="#930000"/>
<circle cx="52.5772" cy="510.758" r="8.57718" fill="#930000"/>
<circle cx="52.5772" cy="538.758" r="8.57718" fill="#930000"/>
<circle cx="52.5772" cy="566.758" r="8.57718" fill="#930000"/>
<circle cx="52.5772" cy="594.758" r="8.57718" fill="#930000"/>
<circle cx="52.5772" cy="622.758" r="8.57718" fill="#930000"/>
<circle cx="52.5772" cy="650.758" r="8.57718" fill="#930000"/>
<circle cx="52.5772" cy="678.758" r="8.57718" fill="#930000"/>
<circle cx="52.5772" cy="706.758" r="8.57718" fill="#930000"/>
<circle cx="52.5772" cy="762.758" r="8.57718" fill="#930000"/>
<circle cx="52.5772" cy="734.758" r="8.57718" fill="#930000"/>
<circle cx="52.5772" cy="790.758" r="8.57718" fill="#930000"/>
<circle cx="52.5772" cy="818.758" r="8.57718" fill="#930000"/>
<circle cx="52.5772" cy="846.758" r="8.57718" fill="#930000"/>
</svg>
