<svg xmlns="http://www.w3.org/2000/svg"  viewBox="0 0 18 18"><g clip-path="url(#clip0)"><path d="M9 0.4C4 0.4 0 4.3 0 9.2 0 13.1 2.6 16.4 6.2 17.6 6.6 17.7 6.8 17.4 6.8 17.2 6.8 17 6.8 16.4 6.8 15.7 4.3 16.2 3.7 14.5 3.7 14.5 3.3 13.5 2.7 13.2 2.7 13.2 1.9 12.7 2.8 12.7 2.8 12.7 3.7 12.7 4.2 13.6 4.2 13.6 5 14.9 6.3 14.5 6.8 14.3 6.9 13.7 7.1 13.3 7.4 13.1 5.4 12.9 3.3 12.1 3.3 8.8 3.3 7.8 3.6 7 4.2 6.4 4.1 6.2 3.8 5.3 4.3 4 4.3 4 5 3.8 6.7 5 7.5 4.8 8.2 4.7 9 4.7 9.8 4.7 10.5 4.8 11.2 5 12.9 3.8 13.7 4 13.7 4 14.2 5.3 13.9 6.2 13.8 6.4 14.4 7 14.7 7.8 14.7 8.8 14.7 12.2 12.6 12.9 10.6 13.1 10.9 13.4 11.2 13.9 11.2 14.8 11.2 15.9 11.2 16.9 11.2 17.2 11.2 17.4 11.4 17.7 11.8 17.6 15.4 16.4 18 13.1 18 9.2 18 4.3 14 0.4 9 0.4Z"/></g><defs><clipPath><rect width="18" height="18" /></clipPath></defs></svg>