<?xml version="1.0" encoding="utf-8"?>
<svg version="1.1" id="Layer_1" xmlns="http://www.w3.org/2000/svg" xmlns:xlink="http://www.w3.org/1999/xlink" x="0px" y="0px"
	 viewBox="0 0 35 34" style="enable-background:new 0 0 35 34;" xml:space="preserve">
<path class="base" d="M26.6,30.3c0-0.2-0.2-0.3-0.5-0.3H16c-0.3,0-0.5,0.1-0.5,0.3l-1.3,3c-0.1,0.2,0,0.6,0.4,0.6
	c0.2,0.1,0.5,0,0.6-0.3l1.1-2.6h9.5l1.1,2.6c0.1,0.3,0.4,0.4,0.6,0.3c0.3-0.1,0.5-0.4,0.4-0.6L26.6,30.3z"/>
<path class="left" d="M16.9,9.2l0.6,1.4l3,7.4c0,0,0,0.1,0.1,0.2l1.9,4.6l0.1,0.4l0.1,0.2H9.3c-0.3,0-0.6,0.2-0.6,0.5
	c0,0.3,0.3,0.5,0.6,0.5h14.1c0.4,0,0.6-0.2,0.6-0.5c0-0.1,0-0.2-0.1-0.2l-0.1-0.5l-0.2-0.4l-0.1-0.4l0,0L18.1,9.2l-0.6-1.4l-3-7.4
	C14.4,0.1,14.2,0,13.9,0c-0.2,0-0.4,0.1-0.4,0.4L0.1,33.3c-0.2,0.2,0,0.6,0.2,0.6C0.4,34,0.5,34,0.5,34c0.2,0,0.4-0.1,0.5-0.4
	L14,1.9L16.9,9.2z"/>
<g>
	<path class="right" d="M35,33.3L21.6,0.4c-0.2-0.5-0.9-0.5-1,0l-2.7,6.4l0.6,1.4l2.6-6.3L34,33.6c0.1,0.3,0.4,0.4,0.7,0.3
		C35,33.8,35.1,33.5,35,33.3z"/>
	<path class="right" d="M12.6,22.7l4.5-11.1l-0.6-1.4l-5.1,12.5H12.6z"/>
	<path class="right" d="M10.5,25l-3.4,8.3c-0.1,0.2,0,0.6,0.3,0.6c0.3,0.1,0.6,0,0.7-0.3l3.5-8.6H10.5z"/>
</g>
</svg>
