<?xml version="1.0" encoding="utf-8"?>
<!-- Svg Vector Icons : http://www.onlinewebfonts.com/icon -->
<!DOCTYPE svg PUBLIC "-//W3C//DTD SVG 1.1//EN" "http://www.w3.org/Graphics/SVG/1.1/DTD/svg11.dtd">
<svg version="1.1" xmlns="http://www.w3.org/2000/svg" xmlns:xlink="http://www.w3.org/1999/xlink" x="0px" y="0px" viewBox="0 0 1000 1000" enable-background="new 0 0 1000 1000" xml:space="preserve">
<metadata> Svg Vector Icons : http://www.onlinewebfonts.com/icon </metadata>
<g><g transform="translate(0.000000,511.000000) scale(0.100000,-0.100000)"><path d="M4084.1,3543.8C2162.8,3180.3,900.2,2169.1,367.2,567.6C178.7,4.6,69.3-738.8,107.6-1184.3c68.3-822.7,472.8-1481.3,1161.5-1885.8c344.4-205,729.7-306.1,1164.3-306.1c907.4,0,1697.2,494.7,2088,1303.7C4710-1684.4,4751-1493.1,4751-1047.6c0,418.1-49.2,653.2-218.6,1003c-341.6,713.3-1090.5,1249-1833.9,1311.8c-109.3,8.2-199.5,27.3-199.5,43.7c0,54.7,142.1,303.4,256.9,450.9c131.2,169.5,442.8,478.3,658.7,653.2c207.7,169.4,707.8,486.5,1003,639.5c144.8,73.8,284.2,161.2,308.8,194c57.4,84.7,51.9,191.3-16.4,278.8c-49.2,62.9-73.8,71.1-210.4,68.3C4414.8,3595.7,4226.3,3571.1,4084.1,3543.8z"/><path d="M9413.5,3579.3C6970.2,3194,5505.3,1742.8,5256.6-544.8c-117.5-1095.9,240.5-1937.7,1052.2-2467.9c377.2-246,781.6-363.5,1259.9-363.5c325.2,0,546.6,41,850,155.8c541.2,205,1041.3,686,1284.5,1235.3c191.3,429.1,240.5,1054.9,123,1497.7c-254.1,956.5-1068.6,1667.1-2006,1754.6c-185.9,16.4-185.9,16.4-169.5,87.4c27.3,106.6,133.9,278.8,311.6,500.2c333.4,412.7,882.8,825.4,1650.8,1238.1c251.4,136.7,311.6,207.7,278.8,333.4c-30.1,123-109.3,172.2-265.1,169.4C9547.4,3593,9451.8,3584.8,9413.5,3579.3z"/></g></g>
</svg>