<svg xmlns="http://www.w3.org/2000/svg" viewBox="0 0 34.208 38.227"><path d="M49.837,23.038a1.006,1.006,0,0,0-.744-.33H16.9a1.006,1.006,0,0,0-1.01,1,.991.991,0,0,0,0,.1L18.913,56a1.006,1.006,0,0,0,.726.873L33.723,60.9a1,1,0,0,0,.28.038,1.037,1.037,0,0,0,.318-.05l12.072-4.024A1.006,1.006,0,0,0,47.076,56l3.018-32.192A1,1,0,0,0,49.837,23.038Z" transform="translate(-15.89 -22.708)" fill="#ff5722"/><path d="M42.852,63.007a1.007,1.007,0,0,1-.276-.04l-7.042-2.012a1.006,1.006,0,0,1-.7-.722l-1.006-4.024a1.006,1.006,0,1,1,1.94-.532c0,.015.008.03.011.045l.865,3.461,6.185,1.767,5.123-1.708.829-8.305H33.8a1.006,1.006,0,0,1-1.006-.879l-1.006-8.048a1.006,1.006,0,0,1,1.006-1.133H51.906a1.006,1.006,0,0,1,0,2.012H33.931l.754,6.036H49.894A1.006,1.006,0,0,1,50.9,50.029l-1.006,10.06a1.006,1.006,0,0,1-.682.855l-6.036,2.012A1.035,1.035,0,0,1,42.852,63.007Z" transform="translate(-24.74 -32.827)" fill="#fafafa"/></svg>