<svg xmlns="http://www.w3.org/2000/svg"  viewBox="0 0 42.016 47.344"><path d="M21.008,47.344a3.814,3.814,0,0,1-1.827-.478L13.4,43.429c-.87-.478-.435-.652-.174-.739a10.537,10.537,0,0,0,2.61-1.174.4.4,0,0,1,.435.043L20.7,44.212a.553.553,0,0,0,.522,0L38.58,34.165a.5.5,0,0,0,.261-.478V13.636a.5.5,0,0,0-.261-.478l-17.354-10a.553.553,0,0,0-.522,0l-17.354,10a.546.546,0,0,0-.261.478V33.687a.546.546,0,0,0,.261.478l4.741,2.74c2.566,1.3,4.175-.217,4.175-1.74V15.375a.529.529,0,0,1,.522-.522h2.218a.529.529,0,0,1,.522.522v19.79c0,3.436-1.87,5.437-5.132,5.437a7.461,7.461,0,0,1-4-1.087l-4.567-2.61A3.671,3.671,0,0,1,0,33.73V13.679A3.671,3.671,0,0,1,1.827,10.5L19.181.457a3.882,3.882,0,0,1,3.654,0L40.189,10.5a3.671,3.671,0,0,1,1.827,3.175V33.73a3.671,3.671,0,0,1-1.827,3.175L22.835,46.953a4.452,4.452,0,0,1-1.827.391Zm5.35-13.788c-7.612,0-9.177-3.48-9.177-6.437A.529.529,0,0,1,17.7,26.6h2.262a.447.447,0,0,1,.478.435c.348,2.305,1.348,3.436,5.959,3.436,3.654,0,5.219-.826,5.219-2.784,0-1.131-.435-1.957-6.133-2.523-4.741-.478-7.7-1.522-7.7-5.306,0-3.523,2.958-5.611,7.916-5.611,5.567,0,8.307,1.914,8.655,6.089a.7.7,0,0,1-.13.391.537.537,0,0,1-.348.174H31.621a.51.51,0,0,1-.478-.391c-.522-2.392-1.87-3.175-5.437-3.175-4,0-4.48,1.392-4.48,2.436,0,1.261.565,1.653,5.959,2.349,5.35.7,7.873,1.7,7.873,5.437-.043,3.828-3.175,6-8.7,6Z" transform="translate(0)" fill="#539e43"/></svg>