<svg xmlns="http://www.w3.org/2000/svg"  viewBox="0 0 53.73 48.308"><path d="M.754,24.852c0,4.058,3.962,7.846,10.209,9.981-1.247,6.28-.224,11.342,3.2,13.314,3.515,2.027,8.752.624,13.722-3.721,4.845,4.169,9.742,5.81,13.158,3.832,3.512-2.033,4.58-7.438,3.3-13.914,6.506-2.151,10.146-5.381,10.146-9.492,0-3.964-3.97-7.393-10.132-9.514C45.732,8.594,44.563,3.655,41,1.6c-3.434-1.98-8.387-.254-13.3,4.024C22.583,1.084,17.679-.3,14.121,1.758,10.69,3.743,9.712,8.9,10.963,15.293,4.927,17.4.754,20.9.754,24.852Z" transform="translate(-0.754 -0.785)" fill="none"/><path d="M54.476,28.275q-.743-.256-1.536-.484.13-.531.237-1.048c1.163-5.644.4-10.191-2.194-11.688-2.489-1.435-6.56.061-10.672,3.639q-.593.516-1.188,1.09-.4-.379-.791-.73c-4.309-3.826-8.628-5.438-11.222-3.937-2.487,1.44-3.223,5.714-2.177,11.063q.152.775.353,1.581c-.611.174-1.2.359-1.766.555-5.052,1.761-8.278,4.522-8.278,7.385,0,2.957,3.464,5.923,8.725,7.722q.623.213,1.29.4-.216.87-.375,1.7c-1,5.256-.219,9.43,2.262,10.86,2.562,1.477,6.862-.041,11.048-3.7q.5-.434,1-.918.647.623,1.29,1.177c4.055,3.49,8.061,4.9,10.539,3.464,2.559-1.482,3.391-5.965,2.311-11.42q-.124-.625-.286-1.275.453-.134.887-.277C59.4,41.628,62.96,38.7,62.96,35.7c0-2.874-3.33-5.653-8.484-7.427Z" transform="translate(-12.183 -11.615)" fill="#53c1de"/><path d="M60.9,49.1q-.391.13-.8.251a47.814,47.814,0,0,0-2.416-6.045,47.8,47.8,0,0,0,2.322-5.957q.732.212,1.418.447c4.416,1.52,7.109,3.768,7.109,5.5,0,1.845-2.909,4.239-7.632,5.8Zm-1.96,3.883a17.261,17.261,0,0,1,.229,6.3,4.212,4.212,0,0,1-1.562,2.962c-1.5.87-4.72-.261-8.188-3.245q-.6-.513-1.2-1.094a47.888,47.888,0,0,0,4-5.079,47.58,47.58,0,0,0,6.462-1q.146.589.258,1.154ZM39.125,62.1a4.212,4.212,0,0,1-3.347.126C34.273,61.353,33.647,58,34.5,53.507q.147-.772.348-1.584a47.94,47.94,0,0,0,6.43.931,49.623,49.623,0,0,0,4.1,5.061q-.457.441-.909.837A17.264,17.264,0,0,1,39.125,62.1Zm-6.883-13a17.264,17.264,0,0,1-5.565-2.957A4.212,4.212,0,0,1,24.9,43.3c0-1.738,2.59-3.954,6.911-5.46.524-.183,1.073-.355,1.642-.517a48.862,48.862,0,0,0,2.326,6.027,49.661,49.661,0,0,0-2.355,6.112q-.609-.175-1.178-.369Zm2.307-15.705c-.9-4.583-.3-8.04,1.2-8.908,1.6-.924,5.126.394,8.847,3.7q.357.317.716.661a48.834,48.834,0,0,0-4.065,5.03,49.821,49.821,0,0,0-6.367.99q-.186-.749-.328-1.47Zm20.583,5.082q-.708-1.223-1.451-2.386c1.522.192,2.981.448,4.351.761A43.541,43.541,0,0,1,56.5,40.951q-.649-1.233-1.373-2.483Zm-8.394-8.175a43.573,43.573,0,0,1,2.808,3.39q-1.4-.066-2.831-.067-1.415,0-2.809.066c.927-1.222,1.877-2.358,2.832-3.389Zm-8.447,8.19q-.707,1.227-1.347,2.467c-.594-1.408-1.1-2.792-1.516-4.129,1.361-.3,2.813-.554,4.326-.743q-.752,1.172-1.463,2.4ZM39.8,50.664a43.387,43.387,0,0,1-4.4-.707c.421-1.361.94-2.775,1.547-4.213q.641,1.237,1.353,2.469h0q.725,1.253,1.5,2.451Zm7,5.784c-.966-1.042-1.93-2.2-2.871-3.436q1.37.054,2.792.054,1.459,0,2.88-.064a43.359,43.359,0,0,1-2.8,3.446Zm9.729-10.777a43.244,43.244,0,0,1,1.6,4.2,43.311,43.311,0,0,1-4.451.759q.743-1.177,1.465-2.428t1.384-2.528Zm-3.15,1.51c-.746,1.293-1.512,2.528-2.289,3.693-1.416.1-2.879.153-4.37.153s-2.929-.046-4.32-.136c-.809-1.181-1.591-2.419-2.332-3.7h0c-.739-1.277-1.42-2.564-2.036-3.845.616-1.283,1.295-2.572,2.03-3.847h0c.737-1.278,1.512-2.51,2.314-3.683,1.419-.107,2.874-.163,4.345-.163h0c1.477,0,2.934.056,4.353.165.789,1.165,1.559,2.393,2.3,3.671s1.435,2.573,2.057,3.829c-.62,1.277-1.305,2.571-2.05,3.862Zm4.205-22.763c1.6.921,2.219,4.638,1.215,9.511q-.1.466-.214.949a48.83,48.83,0,0,0-6.38-1.008,47.884,47.884,0,0,0-4.034-5.034q.55-.529,1.1-1.006c3.523-3.066,6.815-4.276,8.315-3.411Z" transform="translate(-19.797 -19.212)" fill="#0b1b2a"/><path d="M112.305,94.665a4.261,4.261,0,1,1-4.261,4.261,4.261,4.261,0,0,1,4.261-4.261" transform="translate(-85.387 -74.84)" fill="#53c1de"/></svg>