<svg xmlns="http://www.w3.org/2000/svg" viewBox="0 0 18 18" ><g clip-path="url(#clip0)"><path d="M18 3.4C17.3 3.7 16.6 3.9 15.9 4 16.6 3.5 17.2 2.8 17.5 2 16.8 2.4 16 2.7 15.2 2.9 14.5 2.1 13.5 1.7 12.5 1.7 10.4 1.7 8.8 3.3 8.8 5.4 8.8 5.7 8.8 6 8.9 6.2 5.8 6.1 3.1 4.6 1.3 2.4 0.9 2.9 0.7 3.5 0.7 4.2 0.7 5.5 1.4 6.6 2.4 7.3 1.8 7.3 1.2 7.1 0.7 6.8 0.7 6.8 0.7 6.9 0.7 6.9 0.7 8.7 2 10.2 3.7 10.5 3.4 10.6 3 10.6 2.7 10.6 2.5 10.6 2.2 10.6 2 10.6 2.5 12 3.8 13.1 5.5 13.1 4.2 14.1 2.6 14.7 0.9 14.7 0.6 14.7 0.3 14.7 0 14.7 1.6 15.7 3.6 16.3 5.7 16.3 12.5 16.3 16.2 10.7 16.2 5.8 16.2 5.6 16.2 5.5 16.2 5.3 16.9 4.8 17.5 4.2 18 3.4Z" /></g><defs><clipPath><rect /></clipPath></defs></svg>